<svg width="150" height="150" viewBox="0 0 150 150" fill="none" xmlns="http://www.w3.org/2000/svg">
<g clip-path="url(#clip0_30_396)">
<path d="M139.944 37.3528C133.237 25.8627 124.139 16.7652 112.649 10.0587C101.156 3.35243 88.6107 0 75.0022 0C61.3951 0 48.8457 3.35243 37.3552 10.0587C25.8641 16.7642 16.7666 25.8617 10.0597 37.3528C3.35243 48.8447 0 61.3941 0 75.0002C0 88.6069 3.35345 101.154 10.0587 112.647C16.7652 124.137 25.8627 133.234 37.3539 139.942C48.8457 146.648 61.3941 150 75.0009 150C88.6076 150 101.157 146.648 112.649 139.942C124.139 133.237 133.236 124.137 139.942 112.647C146.648 101.155 150 88.6062 150 75.0002C150 61.3928 146.648 48.843 139.944 37.3528ZM123.632 63.5744L70.6059 116.601C69.3687 117.839 67.8722 118.458 66.1134 118.458C64.4209 118.458 62.9566 117.839 61.7191 116.601L26.3662 81.2501C25.1957 80.0772 24.6091 78.6153 24.6091 76.8558C24.6091 75.0334 25.1937 73.5348 26.3662 72.3626L35.253 63.5744C36.4916 62.3375 37.9545 61.7191 39.6483 61.7191C41.3422 61.7191 42.8072 62.3378 44.0437 63.5744L66.1144 85.6444L105.958 45.8986C107.195 44.6614 108.66 44.0426 110.352 44.0426C112.044 44.0426 113.51 44.6614 114.747 45.8986L123.633 54.6882C124.807 55.8594 125.392 57.3566 125.392 59.179C125.392 60.9375 124.807 62.4025 123.632 63.5744Z" fill="black"/>
</g>
<defs>
<clipPath id="clip0_30_396">
<rect width="150" height="150" fill="white"/>
</clipPath>
</defs>
</svg>
