<svg width="150" height="150" viewBox="0 0 150 150" fill="none" xmlns="http://www.w3.org/2000/svg">
<g clip-path="url(#clip0_30_450)">
<path d="M116.232 11.068L106.687 17.2499L105.817 22.1842L115.363 16.0023L116.232 11.068Z" fill="black"/>
<path d="M114.447 21.1829L104.905 27.3631L103.901 33.0397L113.446 26.8575L114.447 21.1829Z" fill="black"/>
<path d="M117.93 1.44556L109.732 0L107.602 12.0687L117.144 5.88819L117.93 1.44556Z" fill="black"/>
<path d="M90.7509 52.9515C87.9063 52.9515 85.5983 55.2576 85.5983 58.1039C85.5983 60.9525 87.9063 63.2586 90.7509 63.2586C90.883 63.2586 91.0097 63.228 91.1364 63.2205C92.3795 72.3785 82.771 80.751 73.6705 81.2444C63.4208 81.7975 59.17 71.8705 58.3211 63.1122C60.5993 62.5801 62.2982 60.5451 62.2982 58.1062C62.2982 55.2613 59.9915 52.9536 57.1455 52.9536C54.3009 52.9536 51.9932 55.2596 51.9932 58.1062C51.9932 59.6839 52.7158 61.0765 53.8323 62.0225C54.5861 74.0723 61.453 87.4107 75.5826 85.4968C87.4099 83.8951 97.9825 72.4963 95.1155 60.8228C95.6102 60.0309 95.905 59.1066 95.905 58.1062C95.9039 55.2593 93.5959 52.9515 90.7509 52.9515Z" fill="black"/>
<path d="M129.854 144.92C126.065 130.005 114.853 78.8073 129.655 46.2416C129.67 46.21 129.672 46.1757 129.686 46.1431C129.766 45.9523 129.825 45.7604 129.867 45.5608C129.878 45.5115 129.894 45.464 129.904 45.4164C129.944 45.1692 129.957 44.9176 129.944 44.667C129.943 44.6212 129.927 44.575 129.924 44.5312C129.902 44.3298 129.865 44.1298 129.803 43.9318C129.783 43.8612 129.757 43.7936 129.731 43.7247C129.666 43.5518 129.584 43.3838 129.489 43.2204C129.468 43.1803 129.456 43.1331 129.428 43.0893C129.414 43.0642 129.39 43.0493 129.376 43.0241C129.348 42.9861 129.333 42.9443 129.306 42.9063L118.66 28.594C118.283 28.084 117.761 27.7223 117.184 27.5023C118.411 30.4763 118.205 34.091 116.565 36.847L120.081 41.5769H105.233L111.575 37.4684L112.535 32.04L102.991 38.2223L102.397 41.5772H92.3955L97.2826 33.8703L98.3954 32.0634L90.8572 27.2649L72.7152 15.7612L67.2532 24.3748L72.5536 41.5793H69.8122L58.7079 5.53162L29.613 14.4953L33.5435 27.2592H30.4938C29.2551 27.2592 28.1189 27.9512 27.5545 29.0552L20.2153 43.3675C20.1827 43.431 20.1698 43.4965 20.1389 43.5617C20.1009 43.6452 20.0683 43.7291 20.0391 43.8181C19.9851 43.9763 19.945 44.1359 19.9182 44.2986C19.9036 44.3739 19.8866 44.4483 19.8781 44.5261C19.8577 44.7417 19.854 44.9546 19.8744 45.1672C19.8768 45.1957 19.8727 45.2229 19.8744 45.2517C19.9036 45.4915 19.963 45.7292 20.0425 45.9587C20.0503 45.9784 20.0503 45.9971 20.0557 46.0165C35.692 88.5615 24.6854 132.753 20.9383 145.285C20.724 146.005 20.3247 147.351 21.3342 148.689C21.957 149.515 22.937 150 23.97 150H24.0134C24.9092 149.989 25.5639 149.681 26.0509 149.25H124.956C125.426 149.597 126.04 149.838 126.845 149.838C127.866 149.838 128.829 149.367 129.455 148.562C130.452 147.28 130.148 146.079 129.854 144.92ZM32.5146 33.8662H35.5803L37.9539 41.5728H28.5586L32.5146 33.8662ZM28.5396 142.643C32.9028 126.13 40.4715 87.0236 27.7935 48.1812H121.723C109.916 80.0453 118.214 124.462 122.496 142.643H28.5396Z" fill="black"/>
</g>
<defs>
<clipPath id="clip0_30_450">
<rect width="150" height="150" fill="white"/>
</clipPath>
</defs>
</svg>
