<svg width="150" height="150" viewBox="0 0 150 150" fill="none" xmlns="http://www.w3.org/2000/svg">
<path d="M90.5185 33.5492C97.4541 37.8978 102.317 45.2565 103.203 53.7982C106.031 55.1198 109.171 55.8798 112.499 55.8798C124.65 55.8798 134.498 46.0314 134.498 33.8824C134.498 21.7316 124.65 11.8832 112.499 11.8832C100.464 11.8869 90.702 21.5593 90.5185 33.5492ZM76.1063 78.5923C88.2572 78.5923 98.1056 68.742 98.1056 56.593C98.1056 44.444 88.2553 34.5956 76.1063 34.5956C63.9573 34.5956 54.1033 44.4459 54.1033 56.5949C54.1033 68.7439 63.9573 78.5923 76.1063 78.5923ZM85.438 80.0917H66.7709C51.2392 80.0917 38.6035 92.7293 38.6035 108.261V131.089L38.6616 131.447L40.234 131.939C55.0562 136.571 67.9334 138.115 78.5324 138.115C99.2344 138.115 111.234 132.213 111.973 131.836L113.443 131.093H113.6V108.261C113.605 92.7293 100.97 80.0917 85.438 80.0917ZM121.835 57.3811H103.311C103.111 64.7922 99.9476 71.4657 94.9438 76.2654C108.75 80.3706 118.851 93.173 118.851 108.295V115.329C137.14 114.659 147.679 109.476 148.373 109.128L149.843 108.383H150V85.5466C150 70.0168 137.364 57.3811 121.835 57.3811ZM37.5047 55.8836C41.8083 55.8836 45.8124 54.6275 49.2044 52.4878C50.2827 45.4549 54.0528 39.3092 59.4384 35.1235C59.4609 34.7117 59.5002 34.3036 59.5002 33.888C59.5002 21.7372 49.6499 11.8888 37.5047 11.8888C25.3519 11.8888 15.5054 21.7372 15.5054 33.888C15.5054 46.0333 25.3519 55.8836 37.5047 55.8836ZM57.2613 76.2654C52.2819 71.4901 49.1295 64.8521 48.8993 57.486C48.2123 57.4354 47.5328 57.3811 46.8326 57.3811H28.1674C12.6357 57.3811 0 70.0168 0 85.5466V108.379L0.0580307 108.731L1.63048 109.227C13.5212 112.939 24.1333 114.65 33.3508 115.189V108.295C33.3545 93.173 43.4519 80.3744 57.2613 76.2654Z" fill="black"/>
</svg>
